#!OML:ASF X:\für Bonn\!DataBase\2005_08_11_Bastian_Final\c3d\Bastian.ASF
:FULLY-SPECIFIED
:DEGREES
196
root 8.11189 10.4019 -4.20327 190.21 84.6891 -158.814
lowerback 68.7784 -5.77106 6.49934
upperback 17.5548 4.63004 6.15318
thorax -1.52126 3.99199 2.43044
lowerneck -10.0122 -10.8449 -0.613139
upperneck -24.0106 -12.5161 11.5543
head -4.85677 -6.48255 3.78899
rclavicle -3.18055e-015 6.36111e-015
rhumerus 28.9628 9.84412 -47.3139
rradius 22.9989
rwrist 2.31502
rhand -42.4518 -0.0070361
rfingers 7.12502
rthumb -15.3304 -29.4188
lclavicle -3.18055e-015 6.36111e-015
lhumerus 5.48516 -24.2582 80.5525
lradius 39.94
lwrist 19.7407
lhand -12.4304 -10.3935
lfingers 7.12502
lthumb 13.6423 19.1395
rfemur -69.0107 -5.82974 21.6616
rtibia 117.743
rfoot -29.4927 -4.36198
rtoes -8.31373
lfemur -53.7035 14.5903 -24.8577
ltibia 126.938
lfoot -46.1596 -8.15846
ltoes 2.89867
197
root 8.11564 10.5519 -4.19216 190.457 84.5993 -158.689
lowerback 68.4507 -5.76366 6.48986
upperback 17.6061 4.56984 6.1501
thorax -1.48083 3.96302 2.44379
lowerneck -10.0242 -10.7901 -0.679391
upperneck -24.0113 -12.437 11.505
head -4.85832 -6.43108 3.78399
rclavicle -2.54444e-014 -4.37326e-014
rhumerus 28.7315 10.9791 -46.8451
rradius 23.3301
rwrist 1.75087
rhand -41.9655 -0.34414
rfingers 7.12502
rthumb -14.8619 -29.7911
lclavicle -2.54444e-014 -4.37326e-014
lhumerus 5.55912 -24.2147 80.5493
lradius 39.9723
lwrist 19.6446
lhand -12.3853 -10.3783
lfingers 7.12502
lthumb 13.6856 19.1517
rfemur -68.0852 -5.59499 21.7051
rtibia 116.499
rfoot -29.2512 -4.57583
rtoes -8.55455
lfemur -53.0149 14.0614 -24.6247
ltibia 125.536
lfoot -45.825 -8.10667
ltoes 2.80547
198
root 8.1201 10.7036 -4.18116 190.425 84.5281 -158.847
lowerback 68.1182 -5.75534 6.49116
upperback 17.6236 4.50432 6.10755
thorax -1.4732 3.93352 2.40854
lowerneck -9.93242 -10.7418 -0.684887
upperneck -24.0563 -12.3662 11.4719
head -4.8926 -6.39395 3.78293
rclavicle -8.5875e-014 -4.69132e-014
rhumerus 28.4075 12.1583 -46.4134
rradius 23.6863
rwrist 1.18076
rhand -41.4926 -0.672876
rfingers 7.12502
rthumb -14.4063 -30.1529
lclavicle -8.5875e-014 -4.69132e-014
lhumerus 5.57724 -24.2647 80.5099
lradius 40.0338
lwrist 19.607
lhand -12.3408 -10.353
lfingers 7.12502
lthumb 13.7286 19.1741
rfemur -67.1745 -5.36128 21.7057
rtibia 115.242
rfoot -29.0191 -4.68968
rtoes -8.67615
lfemur -52.3106 13.531 -24.4409
ltibia 124.103
lfoot -45.5095 -8.0627
ltoes 2.7708
199
root 8.12565 10.8574 -4.16885 190.709 84.4597 -158.686
lowerback 67.7702 -5.73295 6.49936
upperback 17.6366 4.45591 6.08532
thorax -1.47329 3.90845 2.38557
lowerneck -9.75398 -10.6974 -0.762235
upperneck -24.1957 -12.2801 11.4993
head -4.96076 -6.34926 3.82043
rclavicle -9.22361e-014 -1.01778e-013
rhumerus 28.0345 13.2431 -46.1078
rradius 24.0346
rwrist 0.661327
rhand -40.9939 -0.788518
rfingers 7.12502
rthumb -13.9258 -30.3022
lclavicle -9.22361e-014 -1.01778e-013
lhumerus 5.52022 -24.3165 80.4862
lradius 40.1552
lwrist 19.5568
lhand -12.2738 -10.3728
lfingers 7.12502
lthumb 13.7932 19.1499
rfemur -66.2474 -5.10218 21.7502
rtibia 113.954
rfoot -28.7494 -4.81948
rtoes -8.70033
lfemur -51.5947 13.054 -24.2136
ltibia 122.638
lfoot -45.1608 -7.99377
ltoes 2.71718
200
root 8.13192 11.0121 -4.15786 190.862 84.3726 -158.671
lowerback 67.4105 -5.73018 6.52505
upperback 17.6018 4.38535 6.04787
thorax -1.52404 3.87057 2.34415
lowerneck -9.4823 -10.6376 -0.799226
upperneck -24.3416 -12.1828 11.4854
head -5.05242 -6.30341 3.84516
rclavicle -4.13472e-014 -5.80451e-014
rhumerus 27.5961 14.4797 -45.7802
rradius 24.4621
rwrist 0.00608661
rhand -40.4353 -0.937287
rfingers 7.12502
rthumb -13.3873 -30.4872
lclavicle -4.13472e-014 -5.80451e-014
lhumerus 5.34631 -24.3883 80.472
lradius 40.3453
lwrist 19.5134
lhand -12.2363 -10.275
lfingers 7.12502
lthumb 13.8293 19.2452
rfemur -65.3356 -4.90203 21.7821
rtibia 112.648
rfoot -28.4686 -4.93317
rtoes -8.90736
lfemur -50.8891 12.5774 -24.0205
ltibia 121.163
lfoot -44.8181 -7.89135
ltoes 2.62251
201
root 8.13952 11.1673 -4.14589 190.965 84.272 -158.663
lowerback 67.0579 -5.72896 6.54061
upperback 17.5754 4.31225 6.01471
thorax -1.56502 3.8324 2.3136
lowerneck -9.10252 -10.5733 -0.830502
upperneck -24.6137 -12.0646 11.5026
head -5.20057 -6.25282 3.89112
rclavicle -1.59028e-014 6.91771e-014
rhumerus 27.1371 15.5937 -45.6223
rradius 24.8431
rwrist -0.490466
rhand -39.8041 -0.98542
rfingers 7.12502
rthumb -12.7789 -30.5743
lclavicle -1.59028e-014 6.91771e-014
lhumerus 5.18951 -24.4625 80.4693
lradius 40.4904
lwrist 19.4835
lhand -12.2042 -10.2043
lfingers 7.12502
lthumb 13.8602 19.3139
rfemur -64.3504 -4.70134 21.8167
rtibia 111.316
rfoot -28.185 -5.05778
rtoes -8.97206
lfemur -50.103 12.0945 -23.8109
ltibia 119.656
lfoot -44.4715 -7.78871
ltoes 2.52698
202
root 8.14836 11.324 -4.13356 191.281 84.2043 -158.517
lowerback 66.5368 -5.68787 6.54798
upperback 17.6272 4.25356 6.00091
thorax -1.52622 3.80201 2.30048
lowerneck -8.75457 -10.529 -0.930677
upperneck -24.92 -11.9568 11.5891
head -5.34441 -6.20418 3.96828
rclavicle 2.8625e-014 -7.95139e-015
rhumerus 26.7242 16.6044 -45.4799
rradius 25.2262
rwrist -0.994907
rhand -39.1147 -0.905016
rfingers 7.12502
rthumb -12.1142 -30.5343
lclavicle 2.8625e-014 -7.95139e-015
lhumerus 5.07582 -24.5632 80.444
lradius 40.6981
lwrist 19.5009
lhand -12.2254 -10.1011
lfingers 7.12502
lthumb 13.8398 19.4184
rfemur -63.4675 -4.45317 21.8708
rtibia 109.971
rfoot -27.8611 -5.21039
rtoes -9.01282
lfemur -49.4022 11.6665 -23.6139
ltibia 118.134
lfoot -44.1216 -7.73642
ltoes 2.51362
203
root 8.15817 11.4816 -4.12245 191.355 84.1084 -158.607
lowerback 65.9284 -5.68849 6.58233
upperback 17.7293 4.15873 5.96545
thorax -1.42446 3.76516 2.26776
lowerneck -8.55594 -10.4997 -0.954047
upperneck -25.1159 -11.8935 11.5975
head -5.43949 -6.17452 3.99593
rclavicle -6.04305e-014 1.82882e-014
rhumerus 26.3398 17.5969 -45.3681
rradius 25.5921
rwrist -1.5423
rhand -38.4082 -0.812501
rfingers 7.12502
rthumb -11.433 -30.4808
lclavicle -6.04305e-014 1.82882e-014
lhumerus 5.0114 -24.5912 80.4147
lradius 40.8733
lwrist 19.4797
lhand -12.1978 -10.0289
lfingers 7.12502
lthumb 13.8664 19.4888
rfemur -62.5643 -4.28198 21.9028
rtibia 108.61
rfoot -27.5591 -5.31256
rtoes -9.15561
lfemur -48.6809 11.2073 -23.454
ltibia 116.585
lfoot -43.7478 -7.59643
ltoes 2.39564
204
root 8.16992 11.6394 -4.11042 191.544 84.0298 -158.59
lowerback 65.2813 -5.64624 6.58187
upperback 17.8397 4.08346 5.96045
thorax -1.31901 3.73056 2.27385
lowerneck -8.48875 -10.4826 -0.956965
upperneck -25.1542 -11.8754 11.5236
head -5.46893 -6.16004 3.97948
rclavicle 7.63333e-014 8.11041e-014
rhumerus 25.9371 18.4754 -45.3732
rradius 25.9333
rwrist -1.89882
rhand -37.7066 -0.710545
rfingers 7.12502
rthumb -10.7563 -30.4152
lclavicle 7.63333e-014 8.11041e-014
lhumerus 4.93004 -24.6373 80.4192
lradius 41.058
lwrist 19.4775
lhand -12.2382 -10.0177
lfingers 7.12502
lthumb 13.8274 19.5027
rfemur -61.6746 -4.08238 21.9483
rtibia 107.224
rfoot -27.2304 -5.42285
rtoes -9.3224
lfemur -47.9562 10.7922 -23.285
ltibia 115.005
lfoot -43.3631 -7.47538
ltoes 2.34661
205
root 8.18202 11.8019 -4.09878 191.654 83.941 -158.654
lowerback 64.6739 -5.62953 6.58923
upperback 17.9289 3.98964 5.94217
thorax -1.23061 3.68774 2.27025
lowerneck -8.47829 -10.4792 -0.988999
upperneck -25.1577 -11.8752 11.465
head -5.47393 -6.15094 3.96689
rclavicle 2.8625e-014 2.06736e-014
rhumerus 25.5279 19.4982 -45.2816
rradius 26.3917
rwrist -2.43528
rhand -36.9067 -0.73536
rfingers 7.12502
rthumb -9.98459 -30.4785
lclavicle 2.8625e-014 2.06736e-014
lhumerus 4.86221 -24.6109 80.437
lradius 41.228
lwrist 19.4661
lhand -12.3182 -10.0486
lfingers 7.12502
lthumb 13.7504 19.477
rfemur -60.7484 -3.89211 21.9748
rtibia 105.79
rfoot -26.8739 -5.50918
rtoes -9.27153
lfemur -47.2082 10.3649 -23.1189
ltibia 113.38
lfoot -42.9549 -7.42014
ltoes 2.41469
206
root 8.19645 11.9704 -4.08684 191.823 83.8726 -158.634
lowerback 64.1635 -5.60903 6.61074
upperback 17.9723 3.91781 5.90518
thorax -1.18713 3.65467 2.23256
lowerneck -8.46643 -10.4736 -0.982705
upperneck -25.1819 -11.8699 11.407
head -5.48888 -6.14248 3.94991
rclavicle 2.54444e-014 -5.40694e-014
rhumerus 25.0563 20.4289 -45.294
rradius 26.8111
rwrist -2.79278
rhand -36.0098 -0.703442
rfingers 7.12502
rthumb -9.11924 -30.4863
lclavicle 2.54444e-014 -5.40694e-014
lhumerus 4.8113 -24.6382 80.4311
lradius 41.3959
lwrist 19.4385
lhand -12.3742 -10.0713
lfingers 7.12502
lthumb 13.6964 19.458
rfemur -59.7445 -3.68177 22.0183
rtibia 104.298
rfoot -26.5131 -5.61818
rtoes -9.3247
lfemur -46.3596 9.99351 -22.9422
ltibia 111.691
lfoot -42.5559 -7.29563
ltoes 2.34866
